#usda 1.0
(
    defaultPrim = "World"
    metersPerUnit = 1
    upAxis = "Z"
)

def Xform "World" (
    customData = {
        dictionary aisha = {
            string collision_layer = "frozen_phase7i_route_critical_geometry"
            string phase = "PHASE7J"
            string visual_layer = "complete_roomplan_capture"
            string vp_interior = "assumed_locked_not_captured"
        }
    }
)
{
    def Xform "CapturedAdministration" (
        prepend references = @./phase7j_complete_captured_administration_visual.usdc@</CapturedAdministration>
    )
    {
        over "Primary"
        {
            over "Mesh_grp"
            {
                over "Floor_grp"
                {
                    token visibility = "invisible"
                }

                over "Arch_grp"
                {
                    over "Wall_1_grp"
                    {
                        token visibility = "invisible"
                    }

                    over "Wall_11_grp"
                    {
                        token visibility = "invisible"
                    }

                    over "Wall_20_grp"
                    {
                        token visibility = "invisible"
                    }

                    over "Wall_29_grp"
                    {
                        token visibility = "invisible"
                    }

                    over "Wall_36_grp"
                    {
                        token visibility = "invisible"
                    }
                }

                over "Object_grp"
                {
                    over "Storage_grp"
                    {
                        over "Storage12"
                        {
                            token visibility = "invisible"
                        }

                        over "Storage9"
                        {
                            token visibility = "invisible"
                        }

                        over "Storage5"
                        {
                            token visibility = "invisible"
                        }

                        over "Storage2"
                        {
                            token visibility = "invisible"
                        }

                        over "Storage0"
                        {
                            token visibility = "invisible"
                        }

                        over "Storage11"
                        {
                            token visibility = "invisible"
                        }
                    }

                    over "Chair_grp"
                    {
                        over "Chair32"
                        {
                            token visibility = "invisible"
                        }

                        over "Chair31"
                        {
                            token visibility = "invisible"
                        }

                        over "Chair20"
                        {
                            token visibility = "invisible"
                        }

                        over "Chair18"
                        {
                            token visibility = "invisible"
                        }

                        over "Chair15"
                        {
                            token visibility = "invisible"
                        }

                        over "Chair6"
                        {
                            token visibility = "invisible"
                        }

                        over "Chair3"
                        {
                            token visibility = "invisible"
                        }

                        over "Chair30"
                        {
                            token visibility = "invisible"
                        }

                        over "Chair29"
                        {
                            token visibility = "invisible"
                        }

                        over "Chair28"
                        {
                            token visibility = "invisible"
                        }

                        over "Chair27"
                        {
                            token visibility = "invisible"
                        }

                        over "Chair26"
                        {
                            token visibility = "invisible"
                        }

                        over "Chair25"
                        {
                            token visibility = "invisible"
                        }

                        over "Chair23"
                        {
                            token visibility = "invisible"
                        }

                        over "Chair21"
                        {
                            token visibility = "invisible"
                        }

                        over "Chair12"
                        {
                            token visibility = "invisible"
                        }
                    }

                    over "Table_grp"
                    {
                        over "Table4"
                        {
                            token visibility = "invisible"
                        }

                        over "Table2"
                        {
                            token visibility = "invisible"
                        }

                        over "Table1"
                        {
                            token visibility = "invisible"
                        }
                    }

                    over "Television_grp"
                    {
                        over "Television1"
                        {
                            token visibility = "invisible"
                        }
                    }
                }
            }
        }

        over "PrincipalSupplement"
        {
            over "Mesh_grp"
            {
                over "Floor_grp"
                {
                    token visibility
                }

                over "Arch_grp"
                {
                    over "Wall_8_grp"
                    {
                        token visibility
                    }

                    over "Wall_12_grp"
                    {
                        token visibility = "invisible"
                    }

                    over "Wall_19_grp"
                    {
                        token visibility = "invisible"
                    }
                }

                over "Object_grp"
                {
                    over "Storage_grp"
                    {
                        over "Storage7"
                        {
                            token visibility = "invisible"
                        }

                        over "Storage1"
                        {
                            token visibility = "invisible"
                        }
                    }

                    over "Chair_grp"
                    {
                        over "Chair2"
                        {
                            token visibility = "invisible"
                        }
                    }

                    over "Table_grp"
                    {
                        over "Table1"
                        {
                            token visibility = "invisible"
                        }

                        over "Table0"
                        {
                            token visibility = "invisible"
                        }
                    }
                }
            }
        }
    }

    def Xform "PlanAuthorityFloors" (
        prepend apiSchemas = ["MaterialBindingAPI"]
        customData = {
            dictionary aisha = {
                string role = "visible_plan_authority_floor_with_atrium_step_down"
            }
        }
        prepend references = @./administration.usd@</World/Architecture/Floors>
    )
    {
        rel material:binding = </World/CapturedAdministration/Materials/Floor> (
            bindMaterialAs = "strongerThanDescendants"
        )
    }

    def Xform "AISHA" (
        prepend references = @./administration.usd@</World/AISHA>
    )
    {
    }

    def Xform "NavigationCollision" (
        customData = {
            dictionary aisha = {
                string role = "hidden_phase7i_route_critical_collision_layer"
            }
        }
    )
    {
        def Xform "Architecture" (
            prepend references = @./administration.usd@</World/Architecture>
        )
        {
            token visibility = "invisible"
        }

        def Xform "Furniture" (
            prepend references = @./administration.usd@</World/Furniture>
        )
        {
            token visibility = "invisible"
        }
    }

    def Scope "Looks" (
        prepend references = @./administration.usd@</World/Looks>
    )
    {
    }

    def "RouteEvidence"
    {
        def BasisCurves "AcceptedMissionTrace" (
            customData = {
                dictionary aisha = {
                    string source = "accepted_phase7e_live_policy_mission"
                }
            }
        )
        {
            uniform token basis = "bspline"
            int[] curveVertexCounts = [1005]
            point3f[] points = [(3.435356, -0.000032, 0.035), (3.520175, -0.000122, 0.035), (3.623251, -0.000184, 0.035), (3.730425, 0.00006, 0.035), (3.848776, 0.000367, 0.035), (3.964167, 0.000912, 0.035), (4.076934, 0.001518, 0.035), (4.18924, 0.002032, 0.035), (4.28916, 0.001937, 0.035), (4.325489, 0.001799, 0.035), (4.325491, 0.001799, 0.035), (4.32549, 0.0018, 0.035), (4.325491, 0.001799, 0.035), (4.32549, 0.001799, 0.035), (4.32549, 0.001799, 0.035), (4.325489, 0.001799, 0.035), (4.32549, 0.001799, 0.035), (4.32549, 0.001799, 0.035), (4.32549, 0.001799, 0.035), (4.32549, 0.0018, 0.035), (4.32549, 0.001799, 0.035), (4.351327, 0.001681, 0.035), (4.519313, 0.001148, 0.035), (4.79734, 0.000195, 0.035), (5.130247, -0.001057, 0.035), (5.452098, -0.004775, 0.035), (5.799114, -0.011634, 0.035), (6.162459, -0.016944, 0.035), (6.530603, -0.018324, 0.035), (6.902358, -0.016323, 0.035), (7.274451, -0.011355, 0.035), (7.646208, -0.003103, 0.035), (8.017654, 0.008441, 0.035), (8.388876, 0.023202, 0.035), (8.759583, 0.039981, 0.035), (9.130007, 0.057592, 0.035), (9.499947, 0.07556, 0.035), (9.870134, 0.093725, 0.035), (10.237989, 0.112233, 0.035), (10.601709, 0.131513, 0.035), (10.965858, 0.149262, 0.035), (11.326614, 0.166282, 0.035), (11.687318, 0.181955, 0.035), (12.046027, 0.19633, 0.035), (12.403919, 0.209966, 0.035), (12.762926, 0.222971, 0.035), (13.121289, 0.234549, 0.035), (13.479679, 0.245557, 0.035), (13.840621, 0.260099, 0.035), (14.19546, 0.281655, 0.035), (14.551989, 0.303681, 0.035), (14.912007, 0.331107, 0.035), (15.268847, 0.362625, 0.035), (15.626064, 0.397233, 0.035), (15.974892, 0.431397, 0.035), (16.262196, 0.461016, 0.035), (16.468874, 0.482471, 0.035), (16.607443, 0.496399, 0.035), (16.714159, 0.506146, 0.035), (16.780195, 0.511475, 0.035), (16.784447, 0.511809, 0.035), (16.784994, 0.51184, 0.035), (16.785675, 0.51177, 0.035), (16.787464, 0.511195, 0.035), (16.81073, 0.499912, 0.035), (16.862625, 0.464812, 0.035), (16.94834, 0.387391, 0.035), (17.019217, 0.298266, 0.035), (17.07432, 0.198934, 0.035), (17.113966, 0.089664, 0.035), (17.138601, -0.019624, 0.035), (17.152653, -0.132117, 0.035), (17.158424, -0.246104, 0.035), (17.158295, -0.361129, 0.035), (17.154327, -0.476169, 0.035), (17.14746, -0.592139, 0.035), (17.138706, -0.709814, 0.035), (17.128407, -0.827538, 0.035), (17.117523, -0.94516, 0.035), (17.10654, -1.060796, 0.035), (17.095829, -1.166545, 0.035), (17.084259, -1.271512, 0.035), (17.072138, -1.376336, 0.035), (17.059908, -1.477314, 0.035), (17.04953, -1.564484, 0.035), (17.039503, -1.65128, 0.035), (17.029701, -1.737908, 0.035), (17.020325, -1.824169, 0.035), (17.011423, -1.910526, 0.035), (17.003504, -1.997524, 0.035), (16.99657, -2.08496, 0.035), (16.990498, -2.172949, 0.035), (16.984941, -2.261291, 0.035), (16.980219, -2.351191, 0.035), (16.976515, -2.444717, 0.035), (16.973923, -2.539179, 0.035), (16.97212, -2.63167, 0.035), (16.971306, -2.726032, 0.035), (16.970995, -2.820161, 0.035), (16.971172, -2.913337, 0.035), (16.971943, -3.003802, 0.035), (16.972816, -3.099103, 0.035), (16.974163, -3.20127, 0.035), (16.975836, -3.296166, 0.035), (16.978073, -3.389161, 0.035), (16.98087, -3.465432, 0.035), (16.98084, -3.465556, 0.035), (16.980734, -3.464485, 0.035), (16.980627, -3.463612, 0.035), (16.980547, -3.462902, 0.035), (16.980497, -3.462475, 0.035), (16.980453, -3.462095, 0.035), (16.980398, -3.46168, 0.035), (16.980364, -3.46135, 0.035), (16.980314, -3.460979, 0.035), (16.980234, -3.460469, 0.035), (16.980185, -3.460098, 0.035), (16.980133, -3.4598, 0.035), (16.98007, -3.459339, 0.035), (16.980036, -3.459059, 0.035), (16.979992, -3.458783, 0.035), (16.979942, -3.458423, 0.035), (16.97988, -3.458044, 0.035), (16.980171, -3.459905, 0.035), (16.983387, -3.480539, 0.035), (16.986387, -3.498823, 0.035), (16.989481, -3.516592, 0.035), (16.992287, -3.531692, 0.035), (16.99527, -3.546911, 0.035), (16.99935, -3.567644, 0.035), (17.00359, -3.589245, 0.035), (17.007383, -3.608487, 0.035), (17.011583, -3.62974, 0.035), (17.015514, -3.649558, 0.035), (17.019772, -3.671066, 0.035), (17.023756, -3.691024, 0.035), (17.027815, -3.711319, 0.035), (17.031733, -3.730823, 0.035), (17.035955, -3.751708, 0.035), (17.039957, -3.771524, 0.035), (17.044132, -3.792011, 0.035), (17.048084, -3.811329, 0.035), (17.052353, -3.832122, 0.035), (17.056234, -3.850879, 0.035), (17.0603, -3.870431, 0.035), (17.064493, -3.890479, 0.035), (17.068491, -3.909422, 0.035), (17.072575, -3.928614, 0.035), (17.076693, -3.947749, 0.035), (17.080765, -3.966551, 0.035), (17.084684, -3.98444, 0.035), (17.088486, -4.001554, 0.035), (17.0918, -4.016117, 0.035), (17.094091, -4.026005, 0.035), (17.09602, -4.034095, 0.035), (17.096165, -4.034743, 0.035), (17.096127, -4.034534, 0.035), (17.096128, -4.034579, 0.035), (17.096165, -4.034708, 0.035), (17.096107, -4.03442, 0.035), (17.09611, -4.034345, 0.035), (17.096083, -4.034228, 0.035), (17.09608, -4.034222, 0.035), (17.096083, -4.034224, 0.035), (17.095995, -4.033901, 0.035), (17.095993, -4.033922, 0.035), (17.096037, -4.034089, 0.035), (17.09593, -4.033656, 0.035), (17.095823, -4.033134, 0.035), (17.095852, -4.03323, 0.035), (17.095886, -4.033312, 0.035), (17.095901, -4.033387, 0.035), (17.095821, -4.032909, 0.035), (17.095865, -4.032967, 0.035), (17.09586, -4.032887, 0.035), (17.095827, -4.032761, 0.035), (17.095798, -4.032654, 0.035), (17.095629, -4.031883, 0.035), (17.095469, -4.031228, 0.035), (17.095373, -4.030749, 0.035), (17.095211, -4.030148, 0.035), (17.095068, -4.029637, 0.035), (17.095322, -4.030781, 0.035), (17.096527, -4.035899, 0.035), (17.097034, -4.038426, 0.035), (17.097437, -4.040736, 0.035), (17.097775, -4.043098, 0.035), (17.098063, -4.045411, 0.035), (17.09825, -4.04756, 0.035), (17.098402, -4.049793, 0.035), (17.098465, -4.050978, 0.035), (17.098475, -4.05152, 0.035), (17.09849, -4.052127, 0.035), (17.098568, -4.058182, 0.035), (17.098768, -4.07927, 0.035), (17.098885, -4.10028, 0.035), (17.098936, -4.121401, 0.035), (17.098946, -4.142787, 0.035), (17.098919, -4.163929, 0.035), (17.098856, -4.185093, 0.035), (17.098757, -4.206422, 0.035), (17.098656, -4.227228, 0.035), (17.098515, -4.248558, 0.035), (17.09836, -4.269719, 0.035), (17.098196, -4.290495, 0.035), (17.098017, -4.311558, 0.035), (17.097826, -4.332726, 0.035), (17.09763, -4.353402, 0.035), (17.09743, -4.374572, 0.035), (17.097206, -4.395948, 0.035), (17.096981, -4.417624, 0.035), (17.096758, -4.438739, 0.035), (17.096521, -4.460156, 0.035), (17.096266, -4.481771, 0.035), (17.09601, -4.503246, 0.035), (17.095762, -4.524358, 0.035), (17.095512, -4.545737, 0.035), (17.095247, -4.566976, 0.035), (17.09499, -4.588458, 0.035), (17.094728, -4.609862, 0.035), (17.094463, -4.631166, 0.035), (17.094206, -4.652409, 0.035), (17.093931, -4.676882, 0.035), (17.093742, -4.70051, 0.035), (17.093609, -4.722339, 0.035), (17.093481, -4.749293, 0.035), (17.093393, -4.776569, 0.035), (17.093338, -4.803838, 0.035), (17.093306, -4.830905, 0.035), (17.0933, -4.857779, 0.035), (17.093313, -4.884615, 0.035), (17.093334, -4.911717, 0.035), (17.09338, -4.938814, 0.035), (17.093437, -4.966188, 0.035), (17.093494, -4.994496, 0.035), (17.093542, -5.023054, 0.035), (17.093597, -5.051526, 0.035), (17.093618, -5.074457, 0.035), (17.093645, -5.097793, 0.035), (17.093676, -5.121279, 0.035), (17.093687, -5.145107, 0.035), (17.093697, -5.168902, 0.035), (17.093699, -5.192857, 0.035), (17.093693, -5.216536, 0.035), (17.093678, -5.240684, 0.035), (17.093674, -5.265039, 0.035), (17.093676, -5.289489, 0.035), (17.093662, -5.314102, 0.035), (17.093649, -5.338801, 0.035), (17.093632, -5.363904, 0.035), (17.093609, -5.38876, 0.035), (17.093588, -5.415465, 0.035), (17.093575, -5.443179, 0.035), (17.093582, -5.470965, 0.035), (17.093584, -5.499022, 0.035), (17.093588, -5.526953, 0.035), (17.093592, -5.554969, 0.035), (17.093618, -5.582868, 0.035), (17.093622, -5.608713, 0.035), (17.093626, -5.634536, 0.035), (17.093616, -5.660345, 0.035), (17.093613, -5.686285, 0.035), (17.093601, -5.712386, 0.035), (17.093586, -5.738491, 0.035), (17.093575, -5.76451, 0.035), (17.093552, -5.790973, 0.035), (17.093525, -5.817271, 0.035), (17.093502, -5.843355, 0.035), (17.09348, -5.870072, 0.035), (17.093462, -5.896691, 0.035), (17.093437, -5.923425, 0.035), (17.093414, -5.950171, 0.035), (17.093395, -5.977058, 0.035), (17.093374, -6.004129, 0.035), (17.09335, -6.03146, 0.035), (17.093338, -6.058813, 0.035), (17.093334, -6.086205, 0.035), (17.093323, -6.113755, 0.035), (17.093325, -6.141449, 0.035), (17.093346, -6.168791, 0.035), (17.09336, -6.196277, 0.035), (17.09338, -6.223757, 0.035), (17.093401, -6.250108, 0.035), (17.093458, -6.255471, 0.035), (17.093456, -6.255046, 0.035), (17.093306, -6.254224, 0.035), (17.093174, -6.253657, 0.035), (17.093044, -6.253252, 0.035), (17.092844, -6.252761, 0.035), (17.092457, -6.251768, 0.035), (17.092047, -6.250812, 0.035), (17.091747, -6.250297, 0.035), (17.09133, -6.249671, 0.035), (17.090755, -6.248902, 0.035), (17.090181, -6.248219, 0.035), (17.089472, -6.24749, 0.035), (17.088766, -6.246829, 0.035), (17.08815, -6.246351, 0.035), (17.087433, -6.245851, 0.035), (17.086674, -6.245368, 0.035), (17.086111, -6.245075, 0.035), (17.08568, -6.244907, 0.035), (17.08502, -6.244664, 0.035), (17.08464, -6.24456, 0.035), (17.084114, -6.24445, 0.035), (17.083357, -6.244311, 0.035), (17.082306, -6.244188, 0.035), (17.080805, -6.244131, 0.035), (17.079697, -6.244153, 0.035), (17.076773, -6.2442, 0.035), (17.073988, -6.244329, 0.035), (17.073488, -6.244451, 0.035), (17.073847, -6.244473, 0.035), (17.07342, -6.244586, 0.035), (17.072092, -6.244867, 0.035), (17.071754, -6.244997, 0.035), (17.071527, -6.245091, 0.035), (17.07107, -6.245239, 0.035), (17.070673, -6.245406, 0.035), (17.070086, -6.245663, 0.035), (17.069662, -6.245864, 0.035), (17.06933, -6.246076, 0.035), (17.069027, -6.246297, 0.035), (17.068909, -6.24643, 0.035), (17.06873, -6.246631, 0.035), (17.068502, -6.246893, 0.035), (17.068174, -6.247243, 0.035), (17.067871, -6.247627, 0.035), (17.06756, -6.248082, 0.035), (17.067286, -6.248553, 0.035), (17.06715, -6.248826, 0.035), (17.066967, -6.249197, 0.035), (17.066658, -6.249864, 0.035), (17.06646, -6.250365, 0.035), (17.06628, -6.250907, 0.035), (17.066088, -6.251588, 0.035), (17.065918, -6.25242, 0.035), (17.065836, -6.252896, 0.035), (17.065765, -6.253706, 0.035), (17.065723, -6.254529, 0.035), (17.065775, -6.255288, 0.035), (17.06573, -6.255054, 0.035), (17.065699, -6.254744, 0.035), (17.065693, -6.254436, 0.035), (17.065704, -6.254124, 0.035), (17.066229, -6.249386, 0.035), (17.069582, -6.222907, 0.035), (17.073338, -6.196162, 0.035), (17.077423, -6.169167, 0.035), (17.081806, -6.142011, 0.035), (17.086517, -6.114407, 0.035), (17.089846, -6.095761, 0.035), (17.089933, -6.095244, 0.035), (17.09049, -6.092591, 0.035), (17.09477, -6.072599, 0.035), (17.096529, -6.064806, 0.035), (17.09648, -6.065341, 0.035), (17.096468, -6.065451, 0.035), (17.096489, -6.065356, 0.035), (17.096518, -6.065284, 0.035), (17.096504, -6.065672, 0.035), (17.09651, -6.065801, 0.035), (17.096502, -6.066049, 0.035), (17.096537, -6.06349, 0.035), (17.096827, -6.036454, 0.035), (17.09706, -6.008375, 0.035), (17.097235, -5.980361, 0.035), (17.097366, -5.952423, 0.035), (17.097466, -5.924334, 0.035), (17.097542, -5.896066, 0.035), (17.0976, -5.867766, 0.035), (17.097647, -5.839621, 0.035), (17.097681, -5.811195, 0.035), (17.097696, -5.78291, 0.035), (17.09771, -5.754467, 0.035), (17.09772, -5.72637, 0.035), (17.097717, -5.697998, 0.035), (17.097704, -5.669745, 0.035), (17.097702, -5.641478, 0.035), (17.097681, -5.613199, 0.035), (17.097666, -5.584937, 0.035), (17.097654, -5.557602, 0.035), (17.097641, -5.530505, 0.035), (17.097612, -5.503352, 0.035), (17.097593, -5.476059, 0.035), (17.097567, -5.448442, 0.035), (17.097551, -5.420726, 0.035), (17.097534, -5.397556, 0.035), (17.097519, -5.373218, 0.035), (17.097485, -5.346268, 0.035), (17.097395, -5.323639, 0.035), (17.097254, -5.30096, 0.035), (17.097069, -5.27826, 0.035), (17.096853, -5.255766, 0.035), (17.09662, -5.233233, 0.035), (17.096357, -5.210607, 0.035), (17.09607, -5.188313, 0.035), (17.095789, -5.166166, 0.035), (17.095522, -5.145601, 0.035), (17.095243, -5.124654, 0.035), (17.095013, -5.106634, 0.035), (17.09479, -5.088869, 0.035), (17.094507, -5.067547, 0.035), (17.09429, -5.050466, 0.035), (17.09404, -5.031467, 0.035), (17.093834, -5.015971, 0.035), (17.093596, -4.997149, 0.035), (17.093359, -4.97792, 0.035), (17.093117, -4.958028, 0.035), (17.09287, -4.937779, 0.035), (17.09262, -4.917574, 0.035), (17.092386, -4.898295, 0.035), (17.092142, -4.87884, 0.035), (17.09192, -4.860708, 0.035), (17.091677, -4.841199, 0.035), (17.09143, -4.821864, 0.035), (17.09119, -4.803004, 0.035), (17.090946, -4.784266, 0.035), (17.090696, -4.765567, 0.035), (17.090496, -4.749031, 0.035), (17.09026, -4.730812, 0.035), (17.090021, -4.712573, 0.035), (17.089815, -4.696157, 0.035), (17.089584, -4.677783, 0.035), (17.089355, -4.659557, 0.035), (17.089134, -4.641299, 0.035), (17.088903, -4.622925, 0.035), (17.08868, -4.604394, 0.035), (17.088457, -4.586935, 0.035), (17.08824, -4.568946, 0.035), (17.088001, -4.550405, 0.035), (17.087774, -4.531967, 0.035), (17.087557, -4.51459, 0.035), (17.087317, -4.496181, 0.035), (17.087076, -4.477373, 0.035), (17.086859, -4.460468, 0.035), (17.08662, -4.441924, 0.035), (17.086414, -4.424878, 0.035), (17.08618, -4.406634, 0.035), (17.085962, -4.389734, 0.035), (17.085728, -4.371432, 0.035), (17.08555, -4.357028, 0.035), (17.085304, -4.337864, 0.035), (17.085087, -4.32046, 0.035), (17.084845, -4.301277, 0.035), (17.08463, -4.283579, 0.035), (17.084385, -4.263967, 0.035), (17.084148, -4.244843, 0.035), (17.0839, -4.225353, 0.035), (17.083645, -4.205687, 0.035), (17.083382, -4.186002, 0.035), (17.083128, -4.166073, 0.035), (17.082867, -4.146189, 0.035), (17.082603, -4.126206, 0.035), (17.082342, -4.106173, 0.035), (17.08208, -4.086296, 0.035), (17.081835, -4.066608, 0.035), (17.081581, -4.046481, 0.035), (17.08132, -4.026035, 0.035), (17.081055, -4.005726, 0.035), (17.080793, -3.985323, 0.035), (17.080528, -3.964989, 0.035), (17.080267, -3.944834, 0.035), (17.08, -3.924646, 0.035), (17.079742, -3.904593, 0.035), (17.079493, -3.884977, 0.035), (17.07924, -3.864877, 0.035), (17.078993, -3.844703, 0.035), (17.078737, -3.824902, 0.035), (17.078491, -3.805196, 0.035), (17.07824, -3.785429, 0.035), (17.078001, -3.766183, 0.035), (17.077766, -3.747687, 0.035), (17.077524, -3.729188, 0.035), (17.077301, -3.710379, 0.035), (17.077082, -3.691589, 0.035), (17.076853, -3.672495, 0.035), (17.076626, -3.654141, 0.035), (17.076405, -3.635741, 0.035), (17.076183, -3.617256, 0.035), (17.07597, -3.598888, 0.035), (17.075739, -3.58023, 0.035), (17.075512, -3.561361, 0.035), (17.075289, -3.542373, 0.035), (17.075062, -3.52296, 0.035), (17.07483, -3.503407, 0.035), (17.074596, -3.483422, 0.035), (17.074356, -3.463153, 0.035), (17.073984, -3.433361, 0.035), (17.072594, -3.341948, 0.035), (17.070496, -3.238703, 0.035), (17.068012, -3.141034, 0.035), (17.06528, -3.045474, 0.035), (17.06206, -2.944456, 0.035), (17.05817, -2.840017, 0.035), (17.053993, -2.736037, 0.035), (17.050158, -2.633636, 0.035), (17.04704, -2.53661, 0.035), (17.044239, -2.436736, 0.035), (17.041624, -2.335334, 0.035), (17.03929, -2.232962, 0.035), (17.03733, -2.131511, 0.035), (17.035748, -2.030073, 0.035), (17.034428, -1.92687, 0.035), (17.033403, -1.823328, 0.035), (17.03244, -1.722266, 0.035), (17.032043, -1.608878, 0.035), (17.032679, -1.491786, 0.035), (17.033861, -1.374796, 0.035), (17.035475, -1.269081, 0.035), (17.037704, -1.160143, 0.035), (17.040817, -1.048379, 0.035), (17.04476, -0.93439, 0.035), (17.048874, -0.826819, 0.035), (17.053291, -0.716633, 0.035), (17.057817, -0.609097, 0.035), (17.06274, -0.503226, 0.035), (17.067366, -0.410521, 0.035), (17.070272, -0.349765, 0.035), (17.071144, -0.33037, 0.035), (17.071136, -0.330583, 0.035), (17.071304, -0.331506, 0.035), (17.071438, -0.332026, 0.035), (17.071543, -0.332382, 0.035), (17.07167, -0.332648, 0.035), (17.071754, -0.332785, 0.035), (17.001898, -0.256982, 0.035), (16.838293, -0.124969, 0.035), (16.593437, 0.015805, 0.035), (16.28071, 0.127827, 0.035), (15.927431, 0.18351, 0.035), (15.570523, 0.176884, 0.035), (15.212583, 0.127761, 0.035), (14.873965, 0.055086, 0.035), (14.571049, -0.023277, 0.035), (14.266945, -0.100424, 0.035), (13.953653, -0.173704, 0.035), (13.61301, -0.245597, 0.035), (13.263066, -0.311994, 0.035), (12.908696, -0.369268, 0.035), (12.56001, -0.411877, 0.035), (12.208617, -0.445106, 0.035), (11.847859, -0.468743, 0.035), (11.487574, -0.48032, 0.035), (11.127454, -0.482926, 0.035), (10.767941, -0.476661, 0.035), (10.408896, -0.461854, 0.035), (10.049746, -0.440161, 0.035), (9.695709, -0.411651, 0.035), (9.33861, -0.378264, 0.035), (8.981478, -0.337815, 0.035), (8.625553, -0.292688, 0.035), (8.269743, -0.244886, 0.035), (7.913949, -0.195793, 0.035), (7.557827, -0.146533, 0.035), (7.199668, -0.100344, 0.035), (6.834192, -0.059329, 0.035), (6.46497, -0.025746, 0.035), (6.111, -0.003366, 0.035), (5.773678, 0.007059, 0.035), (5.488451, 0.014937, 0.035), (5.284283, 0.018184, 0.035), (5.140882, 0.019544, 0.035), (5.048062, 0.020042, 0.035), (4.971257, 0.019241, 0.035), (4.862449, 0.004676, 0.035), (4.754296, -0.028276, 0.035), (4.650487, -0.079876, 0.035), (4.553112, -0.150783, 0.035), (4.466542, -0.239621, 0.035), (4.401124, -0.333058, 0.035), (4.346846, -0.435438, 0.035), (4.302312, -0.541071, 0.035), (4.263056, -0.651986, 0.035), (4.227727, -0.763956, 0.035), (4.196534, -0.873289, 0.035), (4.168028, -0.982315, 0.035), (4.140632, -1.093748, 0.035), (4.114717, -1.202634, 0.035), (4.088507, -1.314136, 0.035), (4.063093, -1.423065, 0.035), (4.037074, -1.534276, 0.035), (4.0106, -1.646543, 0.035), (3.985638, -1.7525, 0.035), (3.960916, -1.855764, 0.035), (3.933732, -1.966233, 0.035), (3.904395, -2.083431, 0.035), (3.874191, -2.200932, 0.035), (3.843128, -2.317111, 0.035), (3.810729, -2.432341, 0.035), (3.777132, -2.54721, 0.035), (3.746144, -2.651321, 0.035), (3.714913, -2.754618, 0.035), (3.682537, -2.857932, 0.035), (3.649025, -2.960375, 0.035), (3.618048, -3.051154, 0.035), (3.591584, -3.126117, 0.035), (3.570588, -3.18677, 0.035), (3.546783, -3.296652, 0.035), (3.540885, -3.416271, 0.035), (3.553601, -3.525232, 0.035), (3.583648, -3.631154, 0.035), (3.630419, -3.737294, 0.035), (3.689788, -3.84085, 0.035), (3.758415, -3.939848, 0.035), (3.829308, -4.030874, 0.035), (3.901442, -4.117632, 0.035), (3.976793, -4.201046, 0.035), (4.060564, -4.288931, 0.035), (4.139027, -4.367163, 0.035), (4.215564, -4.441611, 0.035), (4.291824, -4.514973, 0.035), (4.370563, -4.590016, 0.035), (4.450184, -4.665707, 0.035), (4.52917, -4.740967, 0.035), (4.606525, -4.815076, 0.035), (4.681084, -4.88679, 0.035), (4.755372, -4.958671, 0.035), (4.829647, -5.031835, 0.035), (4.905515, -5.108137, 0.035), (4.981309, -5.186044, 0.035), (5.054584, -5.263469, 0.035), (5.125524, -5.340877, 0.035), (5.195641, -5.420252, 0.035), (5.266826, -5.504014, 0.035), (5.339365, -5.592044, 0.035), (5.406522, -5.676042, 0.035), (5.477043, -5.766057, 0.035), (5.545384, -5.855525, 0.035), (5.612992, -5.946141, 0.035), (5.681383, -6.039203, 0.035), (5.750144, -6.13479, 0.035), (5.819214, -6.232269, 0.035), (5.888355, -6.330651, 0.035), (5.952556, -6.42306, 0.035), (5.966515, -6.443785, 0.035), (5.979799, -6.464067, 0.035), (5.99539, -6.488009, 0.035), (6.011015, -6.512098, 0.035), (6.026709, -6.536381, 0.035), (6.042271, -6.560538, 0.035), (6.05784, -6.584775, 0.035), (6.073417, -6.60907, 0.035), (6.088938, -6.633318, 0.035), (6.104399, -6.657505, 0.035), (6.119842, -6.681687, 0.035), (6.13525, -6.705828, 0.035), (6.150686, -6.730035, 0.035), (6.166157, -6.754325, 0.035), (6.181635, -6.77865, 0.035), (6.196958, -6.802758, 0.035), (6.212337, -6.827006, 0.035), (6.227643, -6.851184, 0.035), (6.24289, -6.875343, 0.035), (6.256118, -6.896454, 0.035), (6.262026, -6.906045, 0.035), (6.262069, -6.906104, 0.035), (6.262291, -6.906404, 0.035), (6.262398, -6.90651, 0.035), (6.262495, -6.906626, 0.035), (6.262605, -6.906776, 0.035), (6.262812, -6.907071, 0.035), (6.263039, -6.907341, 0.035), (6.263178, -6.907533, 0.035), (6.263298, -6.907706, 0.035), (6.263441, -6.907943, 0.035), (6.263429, -6.908009, 0.035), (6.26332, -6.907944, 0.035), (6.263279, -6.90796, 0.035), (6.269023, -6.913643, 0.035), (6.289522, -6.933827, 0.035), (6.310173, -6.954203, 0.035), (6.330809, -6.974587, 0.035), (6.351366, -6.99492, 0.035), (6.372009, -7.015368, 0.035), (6.39249, -7.035676, 0.035), (6.412751, -7.055795, 0.035), (6.432817, -7.075749, 0.035), (6.452773, -7.0956, 0.035), (6.472849, -7.115575, 0.035), (6.492865, -7.135497, 0.035), (6.512861, -7.155404, 0.035), (6.532796, -7.175252, 0.035), (6.552801, -7.195168, 0.035), (6.572801, -7.215086, 0.035), (6.592861, -7.23506, 0.035), (6.612924, -7.255037, 0.035), (6.632984, -7.275008, 0.035), (6.65304, -7.294981, 0.035), (6.673075, -7.314922, 0.035), (6.693125, -7.334888, 0.035), (6.71318, -7.354854, 0.035), (6.732354, -7.373943, 0.035), (6.744126, -7.385652, 0.035), (6.755658, -7.39712, 0.035), (6.767111, -7.408504, 0.035), (6.778533, -7.419856, 0.035), (6.789974, -7.43122, 0.035), (6.801444, -7.442619, 0.035), (6.81285, -7.453951, 0.035), (6.824253, -7.465278, 0.035), (6.835721, -7.476669, 0.035), (6.847107, -7.487974, 0.035), (6.85855, -7.499342, 0.035), (6.869996, -7.510713, 0.035), (6.88139, -7.522027, 0.035), (6.892816, -7.533374, 0.035), (6.904272, -7.544749, 0.035), (6.915676, -7.556075, 0.035), (6.927059, -7.567374, 0.035), (6.939101, -7.579329, 0.035), (6.958493, -7.598591, 0.035), (6.978451, -7.618445, 0.035), (6.997139, -7.637052, 0.035), (7.016231, -7.656073, 0.035), (7.03538, -7.675164, 0.035), (7.054623, -7.694354, 0.035), (7.073716, -7.713399, 0.035), (7.092994, -7.732635, 0.035), (7.112268, -7.751861, 0.035), (7.131672, -7.771215, 0.035), (7.151198, -7.790695, 0.035), (7.170753, -7.810206, 0.035), (7.190273, -7.829675, 0.035), (7.209819, -7.849157, 0.035), (7.229473, -7.868755, 0.035), (7.249181, -7.888399, 0.035), (7.268982, -7.908137, 0.035), (7.28871, -7.92781, 0.035), (7.308431, -7.947473, 0.035), (7.328228, -7.967219, 0.035), (7.347943, -7.986902, 0.035), (7.366621, -8.005554, 0.035), (7.3854, -8.024307, 0.035), (7.40426, -8.043152, 0.035), (7.423054, -8.061943, 0.035), (7.441881, -8.08077, 0.035), (7.46065, -8.09953, 0.035), (7.479397, -8.118278, 0.035), (7.498249, -8.137129, 0.035), (7.516943, -8.155828, 0.035), (7.535688, -8.174585, 0.035), (7.554402, -8.193302, 0.035), (7.573221, -8.212131, 0.035), (7.592075, -8.230992, 0.035), (7.61095, -8.249871, 0.035), (7.629828, -8.268762, 0.035), (7.648782, -8.287708, 0.035), (7.667571, -8.306509, 0.035), (7.686432, -8.325378, 0.035), (7.70518, -8.344141, 0.035), (7.723961, -8.362941, 0.035), (7.742775, -8.381774, 0.035), (7.761558, -8.400574, 0.035), (7.780467, -8.419504, 0.035), (7.799292, -8.438343, 0.035), (7.818201, -8.457282, 0.035), (7.837018, -8.476131, 0.035), (7.855847, -8.494993, 0.035), (7.874744, -8.513922, 0.035), (7.893797, -8.532993, 0.035), (7.912639, -8.551856, 0.035), (7.919064, -8.558234, 0.035), (7.918565, -8.557778, 0.035), (7.917978, -8.557344, 0.035), (7.917331, -8.556918, 0.035), (7.916517, -8.55645, 0.035), (7.91563, -8.556002, 0.035), (7.915154, -8.555795, 0.035), (7.914569, -8.555586, 0.035), (7.91378, -8.555347, 0.035), (7.912813, -8.555134, 0.035), (7.911986, -8.555008, 0.035), (7.911317, -8.55498, 0.035), (7.910573, -8.554939, 0.035), (7.910062, -8.554948, 0.035), (7.909389, -8.554999, 0.035), (7.908223, -8.555163, 0.035), (7.906761, -8.555451, 0.035), (7.905614, -8.555752, 0.035), (7.904602, -8.556086, 0.035), (7.903841, -8.556395, 0.035), (7.903211, -8.556697, 0.035), (7.902801, -8.556939, 0.035), (7.902489, -8.557146, 0.035), (7.902265, -8.557321, 0.035), (7.902033, -8.557494, 0.035), (7.901521, -8.557932, 0.035), (7.901026, -8.558399, 0.035), (7.90078, -8.558709, 0.035), (7.900547, -8.559026, 0.035), (7.900255, -8.559437, 0.035), (7.900054, -8.55976, 0.035), (7.899955, -8.559914, 0.035), (7.899738, -8.560289, 0.035), (7.899472, -8.560844, 0.035), (7.89916, -8.561651, 0.035), (7.898956, -8.562328, 0.035), (7.898819, -8.562909, 0.035), (7.898826, -8.562916, 0.035), (7.898785, -8.563296, 0.035), (7.898815, -8.563297, 0.035), (7.898846, -8.563456, 0.035), (7.898897, -8.563728, 0.035), (7.898964, -8.56402, 0.035), (7.899052, -8.564198, 0.035), (7.8991, -8.564245, 0.035), (7.899215, -8.564481, 0.035), (7.899364, -8.564755, 0.035), (7.899471, -8.564925, 0.035), (7.89978, -8.565383, 0.035), (7.900231, -8.566057, 0.035), (7.900719, -8.566715, 0.035), (7.901179, -8.567271, 0.035), (7.901755, -8.567908, 0.035), (7.902327, -8.568482, 0.035), (7.902937, -8.569045, 0.035), (7.89372, -8.559885, 0.035), (7.873853, -8.53978, 0.035), (7.854759, -8.52015, 0.035), (7.8399, -8.504458, 0.035), (7.820981, -8.484175, 0.035), (7.801517, -8.463205, 0.035), (7.782079, -8.442172, 0.035), (7.762809, -8.421234, 0.035), (7.743589, -8.400272, 0.035), (7.724475, -8.379323, 0.035), (7.707462, -8.360561, 0.035), (7.696475, -8.348267, 0.035), (7.696489, -8.348244, 0.035), (7.69656, -8.348292, 0.035), (7.696604, -8.348322, 0.035), (7.696642, -8.348346, 0.035), (7.696648, -8.348337, 0.035), (7.684741, -8.336143, 0.035), (7.664756, -8.315785, 0.035), (7.644751, -8.295492, 0.035), (7.624514, -8.275035, 0.035), (7.604339, -8.254697, 0.035), (7.584119, -8.234356, 0.035), (7.563969, -8.214129, 0.035), (7.54372, -8.19382, 0.035), (7.523506, -8.173557, 0.035), (7.503447, -8.153476, 0.035), (7.483306, -8.133327, 0.035), (7.463066, -8.113084, 0.035), (7.442819, -8.092845, 0.035), (7.424126, -8.074171, 0.035), (7.412357, -8.062428, 0.035), (7.400801, -8.050902, 0.035), (7.38922, -8.039356, 0.035), (7.377573, -8.027754, 0.035), (7.365955, -8.016184, 0.035), (7.354358, -8.004637, 0.035), (7.342687, -7.993019, 0.035), (7.331284, -7.981669, 0.035), (7.319991, -7.970433, 0.035), (7.30864, -7.959141, 0.035), (7.297335, -7.947896, 0.035), (7.285992, -7.936616, 0.035), (7.274683, -7.925377, 0.035), (7.2633, -7.914063, 0.035), (7.251933, -7.902766, 0.035), (7.240546, -7.891452, 0.035), (7.229119, -7.8801, 0.035), (7.21626, -7.867323, 0.035), (7.196541, -7.847719, 0.035), (7.176671, -7.827943, 0.035), (7.157759, -7.809102, 0.035), (7.138549, -7.789959, 0.035), (7.119154, -7.770627, 0.035), (7.099721, -7.751246, 0.035), (7.080183, -7.731759, 0.035), (7.060714, -7.712342, 0.035), (7.041224, -7.692895, 0.035), (7.022966, -7.674661, 0.035), (7.004847, -7.656561, 0.035), (6.986497, -7.638233, 0.035), (6.968431, -7.620181, 0.035), (6.950828, -7.602572, 0.035), (6.933283, -7.585012, 0.035), (6.915988, -7.567681, 0.035), (6.898524, -7.550172, 0.035), (6.881092, -7.532685, 0.035), (6.863535, -7.515077, 0.035), (6.845976, -7.497461, 0.035), (6.828372, -7.479812, 0.035), (6.810846, -7.462232, 0.035), (6.793279, -7.44461, 0.035), (6.775887, -7.427169, 0.035), (6.75831, -7.409542, 0.035), (6.740501, -7.39167, 0.035), (6.722681, -7.373801, 0.035), (6.705002, -7.356066, 0.035), (6.687281, -7.338289, 0.035), (6.669481, -7.32043, 0.035), (6.651904, -7.302803, 0.035), (6.63424, -7.285089, 0.035), (6.617316, -7.26812, 0.035), (6.601004, -7.251771, 0.035), (6.58308, -7.233798, 0.035), (6.565247, -7.215924, 0.035), (6.547484, -7.198119, 0.035), (6.530083, -7.180682, 0.035), (6.512643, -7.163198, 0.035), (6.494884, -7.145395, 0.035), (6.47699, -7.127468, 0.035), (6.459743, -7.110192, 0.035), (6.442523, -7.09294, 0.035), (6.424364, -7.074759, 0.035), (6.406158, -7.056538, 0.035), (6.388773, -7.03913, 0.035), (6.372048, -7.022397, 0.035), (6.355019, -7.005364, 0.035), (6.337821, -6.988169, 0.035), (6.320848, -6.971214, 0.035), (6.303858, -6.954247, 0.035), (6.286709, -6.937121, 0.035), (6.269294, -6.919734, 0.035), (6.252186, -6.902658, 0.035), (6.234941, -6.885446, 0.035), (6.217548, -6.86809, 0.035), (6.199682, -6.85027, 0.035), (6.182086, -6.832722, 0.035), (6.164409, -6.815097, 0.035), (6.146432, -6.797176, 0.035), (6.128633, -6.779433, 0.035), (6.110419, -6.761276, 0.035), (6.092345, -6.743265, 0.035), (6.07428, -6.725249, 0.035), (6.056163, -6.707186, 0.035), (6.038037, -6.689118, 0.035), (6.019829, -6.67096, 0.035), (6.00145, -6.652634, 0.035), (5.983168, -6.634408, 0.035), (5.964982, -6.616277, 0.035), (5.946561, -6.597904, 0.035), (5.928121, -6.579514, 0.035), (5.90977, -6.561212, 0.035), (5.891187, -6.542675, 0.035), (5.872676, -6.524201, 0.035), (5.854039, -6.505595, 0.035), (5.819711, -6.471062, 0.035), (5.748494, -6.396504, 0.035), (5.676182, -6.316458, 0.035), (5.605287, -6.23433, 0.035), (5.535972, -6.151017, 0.035), (5.468157, -6.066288, 0.035), (5.401079, -5.979854, 0.035), (5.334482, -5.892654, 0.035), (5.267546, -5.804715, 0.035), (5.201165, -5.717447, 0.035), (5.139257, -5.635471, 0.035), (5.078072, -5.553768, 0.035), (5.015625, -5.469363, 0.035), (4.950538, -5.380532, 0.035), (4.88287, -5.28813, 0.035), (4.813497, -5.194223, 0.035), (4.742968, -5.099738, 0.035), (4.671001, -5.003976, 0.035), (4.598155, -4.907748, 0.035), (4.524882, -4.811603, 0.035), (4.452338, -4.716863, 0.035), (4.379042, -4.621595, 0.035), (4.308139, -4.530294, 0.035), (4.238044, -4.443187, 0.035), (4.165622, -4.353707, 0.035), (4.09631, -4.267348, 0.035), (4.030231, -4.18435, 0.035), (3.966111, -4.101946, 0.035), (3.895287, -4.011665, 0.035), (3.824208, -3.920939, 0.035), (3.752748, -3.829564, 0.035), (3.687424, -3.746255, 0.035), (3.641498, -3.6877, 0.035), (3.588474, -3.609778, 0.035), (3.536584, -3.504824, 0.035), (3.498893, -3.402146, 0.035), (3.46862, -3.293355, 0.035), (3.444354, -3.177354, 0.035), (3.427504, -3.065011, 0.035), (3.415088, -2.947445, 0.035), (3.406318, -2.831749, 0.035), (3.400286, -2.713149, 0.035), (3.396495, -2.593205, 0.035), (3.39431, -2.473145, 0.035), (3.393777, -2.353866, 0.035), (3.394552, -2.23459, 0.035), (3.395894, -2.114952, 0.035), (3.397758, -1.994854, 0.035), (3.399992, -1.874031, 0.035), (3.402327, -1.75531, 0.035), (3.404577, -1.635921, 0.035), (3.406504, -1.520068, 0.035), (3.40811, -1.414897, 0.035), (3.409433, -1.308559, 0.035), (3.410518, -1.198198, 0.035), (3.410913, -1.093758, 0.035), (3.410869, -0.991985, 0.035), (3.41097, -0.887876, 0.035), (3.411359, -0.779027, 0.035), (3.41179, -0.671885, 0.035), (3.411999, -0.565628, 0.035), (3.41172, -0.467968, 0.035), (3.411035, -0.400693, 0.035)]
            color3f[] primvars:displayColor = [(0.03, 0.72, 0.54)]
            uniform token type = "linear"
            token visibility = "invisible"
            float[] widths = [0.045]
            uniform token wrap = "nonperiodic"
        }
    }

    def "Lighting"
    {
        def DomeLight "Dome"
        {
            color3f inputs:color = (0.82, 0.88, 1)
            float inputs:intensity = 520
        }

        def DistantLight "Key"
        {
            float inputs:angle = 3.5
            float inputs:intensity = 2900
            float3 xformOp:rotateXYZ = (-48, 24, 22)
            uniform token[] xformOpOrder = ["xformOp:rotateXYZ"]
        }

        def DistantLight "Fill"
        {
            float inputs:angle = 7
            float inputs:intensity = 1100
            float3 xformOp:rotateXYZ = (-65, -35, -20)
            uniform token[] xformOpOrder = ["xformOp:rotateXYZ"]
        }
    }
}
